# File created by Blade
# Date/Time:  Fri Jan 16 17:18:57 2015
#---------------------------------------------------------
:version 1.10
:name HOM
:units
  mass 1.0
  length 1.000000
  angle deg
:documentation
     Acclaim Skeleton File
:root
   axis xyz
   order TX TY TZ RX RY RZ
   position 0.000000 0.000000 0.000000
   orientation 0 0 0
:bonedata
   begin
      id 1
      name Spine_dum
      direction 0.000000 1.000000 0.000000
      length 7.170412
      axis 0.0 0.0 0.0 xyz
   end
   begin
      id 2
      name LeftUpLeg_dum
      direction 1.000000 0.000000 0.000000
      length 4.318350
      axis 0.0 0.0 0.0 xyz
   end
   begin
      id 3
      name RightUpLeg_dum
      direction -1.000000 0.000000 0.000000
      length 4.318350
      axis 0.0 0.0 0.0 xyz
   end
   begin
      id 4
      name Spine
      direction 0.000000 1.000000 0.000000
      length 0.000000
      axis 0.0 0.0 0.0 xyz
      dof rx ry rz
   end
   begin
      id 5
      name Spine_dum1
      direction 0.000000 1.000000 0.000000
      length 14.276153
      axis 0.0 0.0 0.0 xyz
   end
   begin
      id 6
      name Spine_dum2
      direction 0.000000 1.000000 0.000000
      length 10.718243
      axis 0.0 0.0 0.0 xyz
   end
   begin
      id 7
      name Spine_dum3
      direction 0.000000 1.000000 0.000000
      length 10.718243
      axis 0.0 0.0 0.0 xyz
   end
   begin
      id 8
      name Head
      direction 0.000000 1.000000 0.000000
      length 4.527550
      axis 0.0 0.0 0.0 xyz
      dof rx ry rz
   end
   begin
      id 9
      name LeftShoulder
      direction 1.000000 0.000000 0.000000
      length 7.058872
      axis 0.0 0.0 -90.0 xyz
      dof rx ry rz
   end
   begin
      id 10
      name LeftArm
      direction 1.000000 0.000000 0.000000
      length 10.955525
      axis 0.0 0.0 -90.0 xyz
      dof rx ry rz
   end
   begin
      id 11
      name LeftForeArm
      direction 1.000000 0.000000 0.000000
      length 8.193716
      axis 0.0 0.0 -90.0 xyz
      dof ry rz rx
   end
   begin
      id 12
      name LeftHand
      direction 0.000000 0.000000 0.000000
      length 0.000000
      axis 0.0 0.0 -90.0 xyz
      dof rx ry rz
   end
   begin
      id 13
      name LeftHand_dum1
      direction 0.000000 0.000000 0.000000
      length 0.000000
      axis 0.0 0.0 -90.0 xyz
   end
   begin
      id 14
      name LeftHand_dum2
      direction 1.000000 0.000000 0.000000
      length 3.937000
      axis 0.0 0.0 -90.0 xyz
   end
   begin
      id 15
      name LeftHandThumb1
      direction 0.000000 0.000000 1.000000
      length 3.937000
      axis 0.0 0.0 -90.0 xyz
      dof rx rz ry
   end
   begin
      id 16
      name RightShoulder
      direction -1.000000 0.000000 0.000000
      length 7.058872
      axis 0.0 0.0 90.0 xyz
      dof rx ry rz
   end
   begin
      id 17
      name RightArm
      direction -1.000000 0.000000 0.000000
      length 10.955525
      axis 0.0 0.0 90.0 xyz
      dof rx ry rz
   end
   begin
      id 18
      name RightForeArm
      direction -1.000000 0.000000 0.000000
      length 8.193716
      axis 0.0 0.0 90.0 xyz
      dof ry rz rx
   end
   begin
      id 19
      name RightHand
      direction 0.000000 0.000000 0.000000
      length 0.000000
      axis 0.0 0.0 90.0 xyz
      dof rx ry rz
   end
   begin
      id 20
      name RightHand_dum1
      direction 0.000000 0.000000 0.000000
      length 0.000000
      axis 0.0 0.0 90.0 xyz
   end
   begin
      id 21
      name RightHand_dum2
      direction -1.000000 0.000000 0.000000
      length 3.937000
      axis 0.0 0.0 90.0 xyz
   end
   begin
      id 22
      name RightHandThumb1
      direction 0.000000 0.000000 1.000000
      length 3.937000
      axis 0.0 0.0 90.0 xyz
      dof rx rz ry
   end
   begin
      id 23
      name LeftUpLeg
      direction 0.000000 -1.000000 0.000000
      length 17.323638
      axis 0.0 0.0 0.0 xyz
      dof rx ry rz
   end
   begin
      id 24
      name LeftLeg
      direction 0.000000 -1.000000 0.000000
      length 16.270368
      axis 0.0 0.0 0.0 xyz
      dof rx ry rz
   end
   begin
      id 25
      name LeftFoot
      direction 0.000000 -0.258819 0.965926
      length 4.922846
      axis 15.0 0.0 0.0 xyz
      dof rx ry rz
   end
   begin
      id 26
      name LeftToeBase
      direction 0.000000 0.000000 1.000000
      length 2.952750
      axis 0.0 0.0 0.0 xyz
      dof rx ry rz
   end
   begin
      id 27
      name RightUpLeg
      direction 0.000000 -1.000000 0.000000
      length 17.323638
      axis 0.0 0.0 0.0 xyz
      dof rx ry rz
   end
   begin
      id 28
      name RightLeg
      direction 0.000000 -1.000000 0.000000
      length 16.270368
      axis 0.0 0.0 0.0 xyz
      dof rx ry rz
   end
   begin
      id 29
      name RightFoot
      direction 0.000000 -0.258819 0.965926
      length 4.922846
      axis 15.0 0.0 0.0 xyz
      dof rx ry rz
   end
   begin
      id 30
      name RightToeBase
      direction 0.000000 0.000000 1.000000
      length 2.952750
      axis 0.0 0.0 0.0 xyz
      dof rx ry rz
   end
:hierarchy
   begin
      root Spine_dum LeftUpLeg_dum RightUpLeg_dum
      Spine_dum Spine
      LeftUpLeg_dum LeftUpLeg
      RightUpLeg_dum RightUpLeg
      Spine Spine_dum1 Spine_dum2 Spine_dum3
      Spine_dum1 Head
      Spine_dum2 LeftShoulder
      Spine_dum3 RightShoulder
      LeftShoulder LeftArm
      LeftArm LeftForeArm
      LeftForeArm LeftHand
      LeftHand LeftHand_dum1 LeftHand_dum2
      LeftHand_dum1 LeftHandThumb1
      RightShoulder RightArm
      RightArm RightForeArm
      RightForeArm RightHand
      RightHand RightHand_dum1 RightHand_dum2
      RightHand_dum1 RightHandThumb1
      LeftUpLeg LeftLeg
      LeftLeg LeftFoot
      LeftFoot LeftToeBase
      RightUpLeg RightLeg
      RightLeg RightFoot
      RightFoot RightToeBase
   end

# File created by Blade
# Date/Time:  Fri Jan 16 17:19:08 2015
# Frame Rate: 120.000 fps
#------------------------------------------------------
:FULLY-SPECIFIED
:DEGREES
1
root -5.328663 35.230709 -9.673257 -0.994186 -6.545934 -5.953687
Spine -0.893227 -0.701468 9.424351
Head 4.983248 3.331938 -7.345844
LeftShoulder -23.330733 13.632133 -13.074162
LeftArm 21.636346 -28.003821 -64.107411
LeftForeArm 20.264145 -0.000000 9.934852
LeftHand -0.632194 0.000000 -4.828659
LeftHandThumb1 -26.253704 0.000000 33.147579
RightShoulder -6.908471 3.704517 -3.447876
RightArm -3.904474 14.269123 57.078060
RightForeArm -27.858942 -0.000000 20.455104
RightHand -2.544384 -0.000000 -6.514208
RightHandThumb1 -24.326973 -0.000000 -32.862282
LeftUpLeg 11.893057 15.099308 7.062677
LeftLeg -9.219554 -0.000000 0.000000
LeftFoot -16.082730 27.730271 -9.193336
LeftToeBase 22.354198 -0.000000 -0.000000
RightUpLeg 8.147248 -2.924067 4.189880
RightLeg -4.998667 -0.000000 0.000000
RightFoot -4.034582 -28.416511 3.431441
RightToeBase 13.747856 -0.000000 -0.000000
2
root -5.326633 35.230325 -9.675168 -0.992407 -6.574748 -5.953453
Spine -0.941389 -0.719183 9.449943
Head 5.001892 3.337619 -7.420086
LeftShoulder -23.348612 13.552463 -13.267513
LeftArm 21.388141 -27.689980 -64.786808
LeftForeArm 19.982679 -0.000000 9.869245
LeftHand -0.512637 -0.000000 -5.126014
LeftHandThumb1 -26.253704 0.000000 33.147579
RightShoulder -6.848725 3.594835 -3.231830
RightArm -4.021967 14.306289 57.834423
RightForeArm -27.768549 0.000000 20.386299
RightHand -2.403771 -0.000000 -5.846886
RightHandThumb1 -24.326973 -0.000000 -32.862282
LeftUpLeg 11.899595 15.130605 7.061453
LeftLeg -9.226326 -0.000000 0.000000
LeftFoot -16.086519 27.721696 -9.198657
LeftToeBase 22.349495 -0.000000 -0.000000
RightUpLeg 8.138828 -2.898029 4.187443
RightLeg -4.994601 -0.000000 0.000000
RightFoot -4.027976 -28.411128 3.426517
RightToeBase 13.739683 -0.000000 -0.000000
3
root -5.324830 35.229722 -9.677534 -0.995088 -6.583901 -5.949301
Spine -0.992057 -0.756932 9.465427
Head 5.036352 3.354531 -7.473052
LeftShoulder -23.361815 13.497023 -13.448584
LeftArm 21.184786 -27.411046 -65.495072
LeftForeArm 19.865273 0.000000 9.722222
LeftHand -0.495664 -0.000000 -5.251977
LeftHandThumb1 -26.253704 0.000000 33.147579
RightShoulder -6.779076 3.452422 -3.029169
RightArm -4.073174 14.510698 58.614402
RightForeArm -27.923188 -0.000000 20.229605
RightHand -2.214422 0.000000 -5.197564
RightHandThumb1 -24.326973 -0.000000 -32.862282
LeftUpLeg 11.903913 15.127042 7.054020
LeftLeg -9.235539 -0.000000 0.000000
LeftFoot -16.077034 27.736501 -9.180643
LeftToeBase 22.354944 -0.000000 -0.000000
RightUpLeg 8.140875 -2.903433 4.181751
RightLeg -5.003814 -0.000000 0.000000
RightFoot -4.026002 -28.412045 3.407417
RightToeBase 13.760715 -0.000000 -0.000000
4
root -5.322374 35.229493 -9.678378 -0.997195 -6.601568 -5.944516
Spine -1.042505 -0.776879 9.486706
Head 5.070369 3.370193 -7.526068
LeftShoulder -23.365774 13.430351 -13.632007
LeftArm 20.949541 -27.214575 -66.215337
LeftForeArm 19.824550 -0.000000 9.625980
LeftHand -0.436386 -0.000000 -5.559137
LeftHandThumb1 -26.253704 0.000000 33.147579
RightShoulder -6.733333 3.293705 -2.827587
RightArm -4.103240 14.615822 59.362866
RightForeArm -27.954752 -0.000000 20.070241
RightHand -1.973115 0.000000 -4.429773
RightHandThumb1 -24.326973 -0.000000 -32.862282
LeftUpLeg 11.911318 15.140043 7.045808
LeftLeg -9.239697 -0.000000 0.000000
LeftFoot -16.091829 27.736714 -9.198271
LeftToeBase 22.378248 -0.000000 -0.000000
RightUpLeg 8.146141 -2.885240 4.174156
RightLeg -5.016138 -0.000000 0.000000
RightFoot -4.016982 -28.411549 3.415490
RightToeBase 13.756078 -0.000000 -0.000000
5
root -5.319081 35.229587 -9.680170 -0.990454 -6.619226 -5.943901
Spine -1.103296 -0.801094 9.513828
Head 5.113465 3.362683 -7.581355
LeftShoulder -23.401138 13.335354 -13.874814
LeftArm 20.775572 -27.020611 -66.848409
LeftForeArm 19.766329 -0.000000 9.434823
LeftHand -0.328121 -0.000000 -5.966026
LeftHandThumb1 -26.253704 0.000000 33.147579
RightShoulder -6.689412 3.081754 -2.583308
RightArm -4.118093 14.274618 60.068541
RightForeArm -27.748056 -0.000000 19.986758
RightHand -1.992063 -0.000000 -4.015082
RightHandThumb1 -24.326973 -0.000000 -32.862282
LeftUpLeg 11.910924 15.146361 7.037630
LeftLeg -9.250845 -0.000000 0.000000
LeftFoot -16.074938 27.748792 -9.191476
LeftToeBase 22.345623 -0.000000 -0.000000
RightUpLeg 8.137684 -2.867913 4.166500
RightLeg -5.020520 -0.000000 0.000000
RightFoot -4.017848 -28.384334 3.501902
RightToeBase 13.624436 -0.000000 -0.000000
6
root -5.317280 35.229400 -9.682006 -0.989077 -6.645340 -5.938934
Spine -1.152383 -0.794544 9.525568
Head 5.137431 3.332571 -7.622194
LeftShoulder -23.410763 13.243236 -14.088302
LeftArm 20.572215 -26.757276 -67.433789
LeftForeArm 19.708232 -0.000000 9.244454
LeftHand -0.272139 -0.000000 -6.139603
LeftHandThumb1 -26.253704 0.000000 33.147579
RightShoulder -6.676360 2.934808 -2.386122
RightArm -4.151200 13.923078 60.788269
RightForeArm -27.508688 -0.000000 19.804999
RightHand -1.672702 0.000000 -3.281856
RightHandThumb1 -24.326973 -0.000000 -32.862282
LeftUpLeg 11.913761 15.165454 7.030106
LeftLeg -9.251662 -0.000000 0.000000
LeftFoot -16.080045 27.749599 -9.198078
LeftToeBase 22.346831 -0.000000 -0.000000
RightUpLeg 8.128872 -2.856131 4.159360
RightLeg -5.014939 -0.000000 0.000000
RightFoot -4.014856 -28.389666 3.389555
RightToeBase 13.791458 -0.000000 -0.000000
